<?xml version="1.0" encoding="utf-8"?>
<!-- Generator: Adobe Illustrator 24.1.1, SVG Export Plug-In . SVG Version: 6.00 Build 0)  -->
<svg version="1.1" xmlns="http://www.w3.org/2000/svg" xmlns:xlink="http://www.w3.org/1999/xlink" x="0px" y="0px"
	 width="1468.8px" height="864px" viewBox="0 0 1468.8 864" style="enable-background:new 0 0 1468.8 864;" xml:space="preserve">
<style type="text/css">
	.st0{display:none;}
	.st1{display:inline;}
	.st2{fill:none;stroke:#2BACE2;stroke-width:0.709;stroke-linecap:round;stroke-linejoin:round;stroke-miterlimit:10;}
	.st3{fill:none;stroke:#EC2227;stroke-width:0.709;stroke-linecap:round;stroke-linejoin:round;stroke-miterlimit:10;}
	.st4{fill:none;stroke:#2BACE2;stroke-width:0.704;stroke-linecap:round;stroke-linejoin:round;}
	.st5{fill:none;stroke:#2BACE2;stroke-width:0.704;stroke-linecap:round;stroke-linejoin:round;stroke-dasharray:11.8892,11.8892;}
	.st6{fill:none;stroke:#2BACE2;stroke-width:0.704;stroke-linecap:round;stroke-linejoin:round;stroke-dasharray:12.0417,12.0417;}
	.st7{fill:none;stroke:#000000;stroke-width:0.709;stroke-linecap:round;stroke-linejoin:round;stroke-miterlimit:10;}
</style>
<g id="Layer_1" class="st0">
	<g class="st1">
		
			<rect x="338.4" y="-270" transform="matrix(-1.836970e-16 1 -1 -1.836970e-16 1166.4 -302.4)" class="st2" width="792" height="1404"/>
		
			<rect x="302.4" y="-302.4" transform="matrix(-1.836970e-16 1 -1 -1.836970e-16 1166.4 -302.4)" class="st3" width="864" height="1468.8"/>
		<g>
			<g>
				<polyline class="st4" points="42,824.4 36,824.4 36,818.4 				"/>
				<line class="st5" x1="36" y1="806.51" x2="36" y2="51.54"/>
				<polyline class="st4" points="36,45.6 36,39.6 42,39.6 				"/>
				<line class="st6" x1="54.04" y1="39.6" x2="1420.78" y2="39.6"/>
				<polyline class="st4" points="1426.8,39.6 1432.8,39.6 1432.8,45.6 				"/>
				<line class="st5" x1="1432.8" y1="57.49" x2="1432.8" y2="812.46"/>
				<polyline class="st4" points="1432.8,818.4 1432.8,824.4 1426.8,824.4 				"/>
				<line class="st6" x1="1414.76" y1="824.4" x2="48.02" y2="824.4"/>
			</g>
		</g>
	</g>
</g>
<g id="Layer_2">
	<path class="st7" d="M1432.8,643v-45.4 M1424.3,597.6h8.5 M1424.3,597.6l-611.9,47.9 M799.3,659.6l0.3-2.6l0.7-2.5l1.2-2.4l1.6-2.1
		l1.9-1.8l2.3-1.3l2.5-1l2.6-0.4 M799.3,674.2v-14.6 M799.3,674.2h28.4 M827.7,682.7v-8.5 M337.3,682.7h490.4 M337.3,682.7v21.2
		 M328.8,703.9h8.5 M328.8,774.8v-70.9 M337.3,774.8h-8.5 M337.3,774.8V796 M337.3,796h490.4 M827.7,796v8.6 M799.3,804.6h28.4
		 M799.3,804.6v19.8 M799.3,824.4h633.5 M1432.8,824.4V779 M1432.8,779h-8.5 M1424.3,733.7V779 M1432.8,733.7h-8.5 M1432.8,733.7
		v-45.4 M1432.8,688.3h-8.5 M1424.3,643v45.3 M1432.8,643h-8.5 M799.3,774.8h-8.5 M790.8,774.8v-70.9 M790.8,703.9h8.5 M799.3,703.9
		v70.9"/>
	<path class="st7" d="M1432.8,266.4V221 M1432.8,266.4h-8.5 M812.4,218.5l611.9,47.9 M812.4,218.5l-2.6-0.5l-2.4-0.9l-2.3-1.3
		l-2-1.8l-1.6-2.1l-1.2-2.4l-0.7-2.5l-0.2-2.6 M799.4,204.4v-14.6 M827.7,189.8h-28.3 M827.7,189.8v-8.5 M827.7,181.3H337.3
		 M337.3,160.1v21.2 M337.3,160.1h-8.5 M328.8,160.1V89.2 M328.8,89.2h8.5 M337.3,67.9v21.3 M827.7,67.9H337.3 M827.7,59.4v8.5
		 M827.7,59.4h-28.3 M799.4,39.6v19.8 M1432.8,39.6H799.4 M1432.8,85V39.6 M1424.3,85h8.5 M1424.3,85v45.3 M1424.3,130.3h8.5
		 M1432.8,175.7v-45.4 M1424.3,175.7h8.5 M1424.3,175.7V221 M1424.3,221h8.5 M790.9,89.2h8.5 M790.9,160.1V89.2 M799.4,160.1h-8.5
		 M799.4,89.2v70.9"/>
	<g>
		<line class="st7" x1="200.3" y1="664.46" x2="200.3" y2="681.46"/>
		<polyline class="st7" points="200.3,664.46 200.1,662.26 199.5,660.06 198.4,658.16 197,656.36 195.3,654.96 193.3,653.96 
			191.2,653.26 189,653.06 		"/>
		<line class="st7" x1="186.2" y1="653.06" x2="189" y2="653.06"/>
		<line class="st7" x1="186.2" y1="681.46" x2="186.2" y2="653.06"/>
		<line class="st7" x1="177.7" y1="681.46" x2="186.2" y2="681.46"/>
		<line class="st7" x1="177.7" y1="681.46" x2="177.7" y2="182.54"/>
		<line class="st7" x1="177.7" y1="182.54" x2="186.2" y2="182.54"/>
		<line class="st7" x1="186.2" y1="182.54" x2="186.2" y2="210.84"/>
		<line class="st7" x1="186.2" y1="210.84" x2="189" y2="210.84"/>
		<polyline class="st7" points="189,210.84 191.2,210.64 193.3,210.04 195.3,208.94 197,207.54 198.4,205.84 199.5,203.84 
			200.1,201.74 200.3,199.54 		"/>
		<line class="st7" x1="200.3" y1="199.54" x2="200.3" y2="182.54"/>
		<polyline class="st7" points="200.3,182.54 200.1,179.74 199.5,176.94 198.5,174.34 197.2,171.84 195.5,169.54 193.5,167.54 
			191.2,165.84 188.7,164.54 186.1,163.54 183.3,162.94 180.5,162.74 		"/>
		<line class="st7" x1="180.5" y1="162.74" x2="36" y2="162.74"/>
		<line class="st7" x1="55.8" y1="212.34" x2="55.8" y2="283.14"/>
		<line class="st7" x1="64.3" y1="212.34" x2="55.8" y2="212.34"/>
		<line class="st7" x1="64.3" y1="212.34" x2="64.3" y2="283.14"/>
		<line class="st7" x1="64.3" y1="283.14" x2="55.8" y2="283.14"/>
		<line class="st7" x1="36" y1="701.26" x2="36" y2="162.74"/>
		<line class="st7" x1="64.3" y1="580.76" x2="55.8" y2="580.76"/>
		<line class="st7" x1="64.3" y1="580.76" x2="64.3" y2="651.66"/>
		<line class="st7" x1="64.3" y1="651.66" x2="55.8" y2="651.66"/>
		<line class="st7" x1="55.8" y1="580.77" x2="55.8" y2="651.67"/>
		<line class="st7" x1="36" y1="701.26" x2="180.5" y2="701.26"/>
		<polyline class="st7" points="180.5,701.26 183.3,701.06 186.1,700.46 188.7,699.46 191.2,698.16 193.5,696.46 195.5,694.46 
			197.2,692.16 198.5,689.66 199.5,687.06 200.1,684.26 200.3,681.46 		"/>
		<line class="st7" x1="156.4" y1="191.04" x2="85.5" y2="191.04"/>
		<line class="st7" x1="85.5" y1="191.04" x2="85.5" y2="182.54"/>
		<line class="st7" x1="85.5" y1="182.54" x2="156.4" y2="182.54"/>
		<line class="st7" x1="156.4" y1="182.54" x2="156.4" y2="191.04"/>
		<line class="st7" x1="156.4" y1="681.46" x2="85.5" y2="681.46"/>
		<line class="st7" x1="85.5" y1="681.46" x2="85.5" y2="672.96"/>
		<line class="st7" x1="85.5" y1="672.96" x2="156.4" y2="672.96"/>
		<line class="st7" x1="156.4" y1="672.96" x2="156.4" y2="681.46"/>
	</g>
	<path class="st7" d="M690.7,182.59v8.5 M690.7,191.09H719 M719,191.09v481.83 M719,672.91h-28.3 M690.7,672.91v8.5 M200.3,182.59
		h490.4 M662.3,212.29h-8.5 M653.8,283.19h8.5 M662.3,580.81h-8.5 M653.8,580.81v70.9 M653.8,651.71h8.5 M662.3,651.71v-70.9
		 M690.7,681.41H200.3 M200.3,212.29v-29.7 M191.8,212.29h8.5 M191.8,283.19v-70.9 M200.3,283.19h-8.5 M200.3,580.81V283.19
		 M191.8,580.81h8.5 M191.8,651.71v-70.9 M200.3,651.71h-8.5 M200.3,681.41v-29.7 M259,425.2l-2-0.3l-2,0.3l-1.8,0.8l-1.6,1.4
		l-1.1,1.7L250,431v2l0.5,2l1.1,1.7l1.6,1.3l1.8,0.8l2,0.3l2-0.3 M259,438.8l1.6,2l2,1.6l2.2,1.1l2.5,0.7l2.5,0.2l2.5-0.4l2.4-0.8
		l2.1-1.3l1.9-1.8l1.5-2l1-2.3l0.5-2.5v-2.6l-0.5-2.4l-1-2.4l-1.5-2l-1.9-1.8l-2.1-1.3l-2.4-0.8l-2.5-0.4l-2.5,0.2l-2.5,0.7
		l-2.2,1.2l-2,1.6l-1.6,1.9 M653.8,212.29v70.9 M662.3,283.19v-70.9"/>
	<path class="st7" d="M1209.38,606.3H727.55 M727.55,379.5h481.83 M1209.38,379.5v45.4 M727.55,515.6v-45.3 M727.55,424.9v-45.4
		 M727.55,606.3V561 M1209.38,470.3v45.3 M719.05,424.9h8.5 M719.05,470.3v-45.4 M727.55,470.3h-8.5 M719.05,515.6h8.5 M719.05,561
		v-45.4 M727.55,561h-8.5 M1209.38,561v45.3 M1217.88,561h-8.5 M1217.88,515.6V561 M1209.38,515.6h8.5 M1217.88,470.3h-8.5
		 M1217.88,424.9v45.4 M1209.38,424.9h8.5"/>
	<path class="st7" d="M986.91,303v-36.8 M950.11,303h36.8 M950.11,266.2V303 M819.7,266.2h130.41 M819.7,257.7v8.5 M748.8,257.7
		h70.9 M748.8,266.2v-8.5 M727.5,266.2h21.3 M727.5,287.4v-21.2 M719,287.4h8.5 M719,358.3v-70.9 M727.5,358.3H719 M727.5,379.5
		v-21.2 M1209.43,379.5H727.5 M1209.43,358.3v21.2 M1217.93,358.3h-8.5 M1217.93,287.4v70.9 M1209.43,287.4h8.5 M1209.43,266.2v21.2
		 M1188.23,266.2h21.2 M1188.23,257.7v8.5 M1117.33,257.7h70.9 M1117.33,266.2v-8.5 M986.91,266.2h130.41"/>
</g>
</svg>
