<?xml version="1.0" encoding="utf-8"?>
<!-- Generator: Adobe Illustrator 24.1.1, SVG Export Plug-In . SVG Version: 6.00 Build 0)  -->
<svg version="1.1" xmlns="http://www.w3.org/2000/svg" xmlns:xlink="http://www.w3.org/1999/xlink" x="0px" y="0px"
	 width="1468.8px" height="864px" viewBox="0 0 1468.8 864" style="enable-background:new 0 0 1468.8 864;" xml:space="preserve">
<style type="text/css">
	.st0{display:none;}
	.st1{display:inline;}
	.st2{fill:none;stroke:#2BACE2;stroke-width:0.709;stroke-linecap:round;stroke-linejoin:round;stroke-miterlimit:10;}
	.st3{fill:none;stroke:#EC2227;stroke-width:0.709;stroke-linecap:round;stroke-linejoin:round;stroke-miterlimit:10;}
	.st4{fill:none;stroke:#2BACE2;stroke-width:0.704;stroke-linecap:round;stroke-linejoin:round;}
	.st5{fill:none;stroke:#2BACE2;stroke-width:0.704;stroke-linecap:round;stroke-linejoin:round;stroke-dasharray:11.8892,11.8892;}
	.st6{fill:none;stroke:#2BACE2;stroke-width:0.704;stroke-linecap:round;stroke-linejoin:round;stroke-dasharray:12.0417,12.0417;}
	.st7{fill:none;stroke:#000000;stroke-width:0.709;stroke-linecap:round;stroke-linejoin:round;stroke-miterlimit:10;}
</style>
<g id="Layer_1" class="st0">
	<g class="st1">
		
			<rect x="338.4" y="-270" transform="matrix(-1.836970e-16 1 -1 -1.836970e-16 1166.4 -302.4)" class="st2" width="792" height="1404"/>
		
			<rect x="302.4" y="-302.4" transform="matrix(-1.836970e-16 1 -1 -1.836970e-16 1166.4 -302.4)" class="st3" width="864" height="1468.8"/>
		<g>
			<g>
				<polyline class="st4" points="42,824.4 36,824.4 36,818.4 				"/>
				<line class="st5" x1="36" y1="806.51" x2="36" y2="51.54"/>
				<polyline class="st4" points="36,45.6 36,39.6 42,39.6 				"/>
				<line class="st6" x1="54.04" y1="39.6" x2="1420.78" y2="39.6"/>
				<polyline class="st4" points="1426.8,39.6 1432.8,39.6 1432.8,45.6 				"/>
				<line class="st5" x1="1432.8" y1="57.49" x2="1432.8" y2="812.46"/>
				<polyline class="st4" points="1432.8,818.4 1432.8,824.4 1426.8,824.4 				"/>
				<line class="st6" x1="1414.76" y1="824.4" x2="48.02" y2="824.4"/>
			</g>
		</g>
	</g>
</g>
<g id="Layer_2">
	<path class="st7" d="M1432.8,643v-45.4 M1424.3,597.6h8.5 M1424.3,597.6l-611.9,47.9 M799.3,659.6l0.3-2.6l0.7-2.5l1.2-2.4l1.6-2.1
		l1.9-1.8l2.3-1.3l2.5-1l2.6-0.4 M799.3,674.2v-14.6 M799.3,674.2h28.4 M827.7,682.7v-8.5 M337.3,682.7h490.4 M337.3,682.7v21.2
		 M328.8,703.9h8.5 M328.8,774.8v-70.9 M337.3,774.8h-8.5 M337.3,774.8V796 M337.3,796h490.4 M827.7,796v8.6 M799.3,804.6h28.4
		 M799.3,804.6v19.8 M799.3,824.4h633.5 M1432.8,824.4V779 M1432.8,779h-8.5 M1424.3,733.7V779 M1432.8,733.7h-8.5 M1432.8,733.7
		v-45.4 M1432.8,688.3h-8.5 M1424.3,643v45.3 M1432.8,643h-8.5 M799.3,774.8h-8.5 M790.8,774.8v-70.9 M790.8,703.9h8.5 M799.3,703.9
		v70.9"/>
	<path class="st7" d="M1432.8,266.4V221 M1432.8,266.4h-8.5 M812.4,218.5l611.9,47.9 M812.4,218.5l-2.6-0.5l-2.4-0.9l-2.3-1.3
		l-2-1.8l-1.6-2.1l-1.2-2.4l-0.7-2.5l-0.2-2.6 M799.4,204.4v-14.6 M827.7,189.8h-28.3 M827.7,189.8v-8.5 M827.7,181.3H337.3
		 M337.3,160.1v21.2 M337.3,160.1h-8.5 M328.8,160.1V89.2 M328.8,89.2h8.5 M337.3,67.9v21.3 M827.7,67.9H337.3 M827.7,59.4v8.5
		 M827.7,59.4h-28.3 M799.4,39.6v19.8 M1432.8,39.6H799.4 M1432.8,85V39.6 M1424.3,85h8.5 M1424.3,85v45.3 M1424.3,130.3h8.5
		 M1432.8,175.7v-45.4 M1424.3,175.7h8.5 M1424.3,175.7V221 M1424.3,221h8.5 M790.9,89.2h8.5 M790.9,160.1V89.2 M799.4,160.1h-8.5
		 M799.4,89.2v70.9"/>
	<path class="st7" d="M180.5,664.46v17 M180.5,664.46l-0.2-2.2l-0.6-2.2l-1.1-1.9l-1.4-1.8l-1.7-1.4l-2-1l-2.1-0.7l-2.2-0.2
		 M166.4,653.06h2.8 M166.4,681.46v-28.4 M157.9,681.46h8.5 M157.9,681.46V182.54 M157.9,182.54h8.5 M166.4,182.54v28.3
		 M166.4,210.84h2.8 M169.2,210.84l2.2-0.2l2.1-0.6l2-1.1l1.7-1.4l1.4-1.7l1.1-2l0.6-2.1l0.2-2.2 M180.5,199.54v-17 M180.5,182.54
		l-0.2-2.8l-0.6-2.8l-1-2.6l-1.3-2.5l-1.7-2.3l-2-2l-2.3-1.7l-2.5-1.3l-2.6-1l-2.8-0.6l-2.8-0.2 M160.7,162.74H36 M36,212.34v-49.6
		 M44.5,212.34H36 M44.5,212.34v70.8 M44.5,283.14H36 M36,580.76V283.14 M44.5,580.76H36 M44.5,580.76v70.9 M44.5,651.66H36
		 M36,701.26v-49.6 M36,701.26h124.7 M160.7,701.26l2.8-0.2l2.8-0.6l2.6-1l2.5-1.3l2.3-1.7l2-2l1.7-2.3l1.3-2.5l1-2.6l0.6-2.8
		l0.2-2.8 M136.6,191.04H65.7 M65.7,191.04v-8.5 M65.7,182.54h70.9 M136.6,182.54v8.5 M136.6,681.46H65.7 M65.7,681.46v-8.5
		 M65.7,672.96h70.9 M136.6,672.96v8.5"/>
	<path class="st7" d="M670.87,182.59v8.5 M670.87,191.09h28.3 M699.17,191.09v481.83 M699.17,672.91h-28.3 M670.87,672.91v8.5
		 M180.47,182.59h490.4 M642.47,212.29h-8.5 M633.97,283.19h8.5 M642.47,580.81h-8.5 M633.97,580.81v70.9 M633.97,651.71h8.5
		 M642.47,651.71v-70.9 M670.87,681.41h-490.4 M180.47,212.29v-29.7 M171.97,212.29h8.5 M171.97,283.19v-70.9 M180.47,283.19h-8.5
		 M180.47,580.81V283.19 M171.97,580.81h8.5 M171.97,651.71v-70.9 M180.47,651.71h-8.5 M180.47,681.41v-29.7 M239.17,425.2l-2-0.3
		l-2,0.3l-1.8,0.8l-1.6,1.4l-1.1,1.7l-0.5,1.9v2l0.5,2l1.1,1.7l1.6,1.3l1.8,0.8l2,0.3l2-0.3 M239.17,438.8l1.6,2l2,1.6l2.2,1.1
		l2.5,0.7l2.5,0.2l2.5-0.4l2.4-0.8l2.1-1.3l1.9-1.8l1.5-2l1-2.3l0.5-2.5v-2.6l-0.5-2.4l-1-2.4l-1.5-2l-1.9-1.8l-2.1-1.3l-2.4-0.8
		l-2.5-0.4l-2.5,0.2l-2.5,0.7l-2.2,1.2l-2,1.6l-1.6,1.9 M633.97,212.29v70.9 M642.47,283.19v-70.9"/>
	<path class="st7" d="M1189.54,606.3H707.72 M707.72,379.5h481.83 M1189.54,379.5v45.4 M707.72,515.6v-45.3 M707.72,424.9v-45.4
		 M707.72,606.3V561 M1189.54,470.3v45.3 M699.22,424.9h8.5 M699.22,470.3v-45.4 M707.72,470.3h-8.5 M699.22,515.6h8.5 M699.22,561
		v-45.4 M707.72,561h-8.5 M1189.54,561v45.3 M1198.04,561h-8.5 M1198.04,515.6V561 M1189.54,515.6h8.5 M1198.04,470.3h-8.5
		 M1198.04,424.9v45.4 M1189.54,424.9h8.5"/>
	<path class="st7" d="M967.08,303v-36.8 M930.28,303h36.8 M930.28,266.2V303 M799.87,266.2h130.41 M799.87,257.7v8.5 M728.97,257.7
		h70.9 M728.97,266.2v-8.5 M707.67,266.2h21.3 M707.67,287.4v-21.2 M699.17,287.4h8.5 M699.17,358.3v-70.9 M707.67,358.3h-8.5
		 M707.67,379.5v-21.2 M1189.59,379.5H707.67 M1189.59,358.3v21.2 M1198.09,358.3h-8.5 M1198.09,287.4v70.9 M1189.59,287.4h8.5
		 M1189.59,266.2v21.2 M1168.39,266.2h21.2 M1168.39,257.7v8.5 M1097.49,257.7h70.9 M1097.49,266.2v-8.5 M967.08,266.2h130.41"/>
</g>
</svg>
